<svg xmlns="http://www.w3.org/2000/svg" version="1.1" xmlns:xlink="http://www.w3.org/1999/xlink" xmlns:svgjs="http://svgjs.dev/svgjs" width="1440" height="3000" preserveAspectRatio="none" viewBox="0 0 1440 3000"><g clip-path="url(&quot;#SvgjsClipPath1253&quot;)" fill="none"><rect width="1440" height="3000" x="0" y="0" fill="rgba(214, 234, 255, 1)"></rect><circle r="240" cx="-119.72" cy="102.22" stroke="#6f99ef" stroke-opacity="0.25" stroke-width="2"></circle><circle r="240" cx="936.51" cy="1064.21" stroke="#6f99ef" stroke-opacity="0.25" stroke-width="2"></circle><circle r="240" cx="1905.84" cy="1938.01" stroke="#6f99ef" stroke-opacity="0.25" stroke-width="2"></circle><circle r="199.245" cx="707.85" cy="1749.3" stroke="#6f99ef" stroke-opacity="0.25" stroke-width="2"></circle><circle r="299.45" cx="1208.39" cy="239.92" stroke="#6f99ef" stroke-opacity="0.25" stroke-width="2"></circle><circle r="430.735" cx="137.68" cy="2893.37" stroke="#6f99ef" stroke-opacity="0.25" stroke-width="2"></circle><circle r="189.41" cx="667.17" cy="1834.39" stroke="#6f99ef" stroke-opacity="0.25" stroke-width="2"></circle><circle r="313.98" cx="998.58" cy="2078.66" stroke="#6f99ef" stroke-opacity="0.25" stroke-width="2"></circle><circle r="207.025" cx="353.45" cy="1197.77" stroke="#6f99ef" stroke-opacity="0.25" stroke-width="2"></circle><circle r="430.28" cx="1383.82" cy="476.1" stroke="#6f99ef" stroke-opacity="0.25" stroke-width="2"></circle><circle r="214.185" cx="1433.8" cy="34.13" stroke="#6f99ef" stroke-opacity="0.25" stroke-width="2"></circle><circle r="220.045" cx="267.67" cy="1922.9" stroke="#6f99ef" stroke-opacity="0.25" stroke-width="2"></circle><circle r="184.55" cx="1138.91" cy="2857.83" stroke="#6f99ef" stroke-opacity="0.25" stroke-width="2"></circle><circle r="353.455" cx="472.56" cy="296.35" stroke="#6f99ef" stroke-opacity="0.25" stroke-width="2"></circle><circle r="187.16" cx="1330.66" cy="2544.97" stroke="#6f99ef" stroke-opacity="0.25" stroke-width="2"></circle><circle r="368.73" cx="825.87" cy="1431.96" stroke="#6f99ef" stroke-opacity="0.25" stroke-width="2"></circle><circle r="392.645" cx="130.33" cy="2336.01" stroke="#6f99ef" stroke-opacity="0.25" stroke-width="2"></circle><circle r="437.33" cx="234.04" cy="776.68" stroke="#6f99ef" stroke-opacity="0.25" stroke-width="2"></circle><circle r="456.515" cx="705.47" cy="2086.13" stroke="#6f99ef" stroke-opacity="0.25" stroke-width="2"></circle><circle r="145.265" cx="740.4" cy="1888.76" stroke="#6f99ef" stroke-opacity="0.25" stroke-width="2"></circle><circle r="164.41" cx="1154.87" cy="1013.84" stroke="#6f99ef" stroke-opacity="0.25" stroke-width="2"></circle><circle r="311.055" cx="516.53" cy="2870.22" stroke="#6f99ef" stroke-opacity="0.25" stroke-width="2"></circle><circle r="436.755" cx="853" cy="1046.07" stroke="#6f99ef" stroke-opacity="0.25" stroke-width="2"></circle><circle r="381.795" cx="641.98" cy="1900.49" stroke="#6f99ef" stroke-opacity="0.25" stroke-width="2"></circle><circle r="352.15" cx="1249.89" cy="1721.13" stroke="#6f99ef" stroke-opacity="0.25" stroke-width="2"></circle><circle r="404.92" cx="699.6" cy="1456" stroke="#6f99ef" stroke-opacity="0.25" stroke-width="2"></circle><circle r="219.755" cx="579.48" cy="2966.88" stroke="#6f99ef" stroke-opacity="0.25" stroke-width="2"></circle><circle r="393.18" cx="555.1" cy="2835.77" stroke="#6f99ef" stroke-opacity="0.25" stroke-width="2"></circle><circle r="380.35" cx="364.09" cy="2645.01" stroke="#6f99ef" stroke-opacity="0.25" stroke-width="2"></circle><circle r="442.1" cx="370.23" cy="1713.04" stroke="#6f99ef" stroke-opacity="0.25" stroke-width="2"></circle><circle r="151.38" cx="74.1" cy="2294.2" stroke="#6f99ef" stroke-opacity="0.25" stroke-width="2"></circle><circle r="429.93" cx="396.8" cy="1252.4" stroke="#6f99ef" stroke-opacity="0.25" stroke-width="2"></circle><circle r="395.165" cx="1181.75" cy="64.94" stroke="#6f99ef" stroke-opacity="0.25" stroke-width="2"></circle><circle r="395.44" cx="1186.14" cy="1527.17" stroke="#6f99ef" stroke-opacity="0.25" stroke-width="2"></circle></g><defs><clipPath id="SvgjsClipPath1253"><rect width="1440" height="3000" x="0" y="0"></rect></clipPath></defs></svg>