<svg xmlns="http://www.w3.org/2000/svg" version="1.1" xmlns:xlink="http://www.w3.org/1999/xlink" xmlns:svgjs="http://svgjs.dev/svgjs" width="1440" height="3000" preserveAspectRatio="none" viewBox="0 0 1440 3000"><g mask="url(&quot;#SvgjsMask1529&quot;)" fill="none"><rect width="1440" height="3000" x="0" y="0" fill="rgba(202, 222, 242, 1)"></rect><path d="M1488 3000L0 3000 L0 1541.74Q100.17 1569.91, 72 1670.08Q147.87 1673.94, 144 1749.81Q277.77 1811.58, 216 1945.35Q163.16 1772.51, 336 1719.67Q383.07 1646.74, 456 1693.81Q436.19 1602, 528 1582.19Q564.91 1499.1, 648 1536.01Q859.64 1675.65, 720 1887.3Q629.51 1676.81, 840 1586.32Q1088.98 1715.3, 960 1964.29Q853.46 1785.75, 1032 1679.21Q1185.11 1712.32, 1152 1865.43Q1085.66 1727.1, 1224 1660.76Q1332.64 1697.4, 1296 1806.04Q1346.52 1784.56, 1368 1835.08Q1422.79 1769.87, 1488 1824.66z" fill="rgba(48, 95, 144, 1)"></path><path d="M1560 3000L0 3000 L0 2382.66Q-30.97 2279.69, 72 2248.73Q73.94 2130.67, 192 2132.61Q139.25 2007.87, 264 1955.12Q524.15 2095.27, 384 2355.42Q334.76 2234.18, 456 2184.94Q465.83 2074.77, 576 2084.59Q544.47 1933.07, 696 1901.54Q977.32 2062.86, 816 2344.18Q676.91 2085.09, 936 1946.01Q1165.21 2103.22, 1008 2332.44Q884.39 2088.83, 1128 1965.22Q1314.33 2031.55, 1248 2217.88Q1337.18 2235.06, 1320 2324.24Q1299.92 2184.16, 1440 2164.08Q1494.33 2098.41, 1560 2152.74z" fill="rgba(80, 135, 185, 1)"></path><path d="M1488 3000L0 3000 L0 2515.95Q86.49 2482.43, 120 2568.92Q189.55 2566.47, 192 2636.02Q283.84 2655.86, 264 2747.69Q227.59 2639.28, 336 2602.86Q349.05 2495.91, 456 2508.96Q442.2 2423.16, 528 2409.37Q728.84 2538.21, 600 2739.05Q505.37 2572.42, 672 2477.79Q805.07 2538.86, 744 2671.94Q804.09 2660.03, 816 2720.12Q872.99 2705.11, 888 2762.11Q918.53 2720.64, 960 2751.17Q946.9 2666.07, 1032 2652.98Q967.98 2516.96, 1104 2452.94Q1308.27 2537.21, 1224 2741.48Q1158.07 2603.55, 1296 2537.62Q1442.65 2612.27, 1368 2758.92Q1264.35 2535.27, 1488 2431.61z" fill="rgba(90, 159, 206, 1)"></path><path d="M1512 3000L0 3000 L0 3009.99Q116.16 3006.14, 120 3122.3Q157.94 3040.24, 240 3078.18Q261.08 2979.26, 360 3000.34Q312.19 2880.53, 432 2832.73Q425.24 2705.97, 552 2699.2Q603.71 2630.91, 672 2682.62Q687.34 2625.96, 744 2641.3Q793.11 2618.41, 816 2667.52Q870.05 2649.57, 888 2703.61Q954.95 2650.56, 1008 2717.51Q1060.48 2697.99, 1080 2750.48Q1248.91 2799.39, 1200 2968.29Q1120.7 2816.99, 1272 2737.69Q1480.97 2826.66, 1392 3035.63Q1247.86 2771.49, 1512 2627.35z" fill="rgba(144, 204, 244, 1)"></path></g><defs><mask id="SvgjsMask1529"><rect width="1440" height="3000" fill="#ffffff"></rect></mask></defs></svg>