<svg xmlns="http://www.w3.org/2000/svg" version="1.1" xmlns:xlink="http://www.w3.org/1999/xlink" xmlns:svgjs="http://svgjs.dev/svgjs" width="1440" height="3000" preserveAspectRatio="none" viewBox="0 0 1440 3000"><g mask="url(&quot;#SvgjsMask1009&quot;)" fill="none"><rect width="1440" height="3000" x="0" y="0" fill="rgba(228, 255, 227, 1)"></rect><path d="M360 96.92C230.68 132.84 164.57 251.16 164.57 360C164.57 433 256.44 426.21 360 460.59C534.15 518.41 569.55 575.92 720 544.39C809.55 525.62 840 449.67 840 360C840 280.33 802.08 250.7 720 205.71C562.08 119.16 508.4 55.7 360 96.92" stroke="rgba(31, 172, 24, 0.58)" stroke-width="2"></path><path d="M96.72 720C96.72 621.66 26.98 629.82 0 529.41C-21.38 449.82 0 444.7 0 360C0 180 -90 90 0 0C90 -90 180 0 360 0C540 0 540 0 720 0C900 0 900 0 1080 0C1260 0 1350 -90 1440 0C1530 90 1440 180 1440 360C1440 540 1440 540 1440 720C1440 900 1440 900 1440 1080C1440 1260 1440 1260 1440 1440C1440 1620 1440 1620 1440 1800C1440 1980 1440 1980 1440 2160C1440 2340 1440 2340 1440 2520C1440 2700 1440 2700 1440 2880C1440 3060 1530 3150 1440 3240C1350 3330 1260 3240 1080 3240C915.88 3240 914.28 3246.97 751.76 3240C734.28 3239.25 735.62 3224.57 720 3224.57C706.24 3224.57 708.37 3239.34 693 3240C528.37 3247.06 526.5 3240 360 3240C180 3240 90 3330 0 3240C-90 3150 0 3060 0 2880C0 2793.91 -37.5 2778.14 0 2707.83C58.5 2598.14 192 2604.13 192 2520C192 2448.5 47.14 2484.96 0 2396.57C-48.86 2304.96 0 2278.28 0 2160C0 1980 0 1980 0 1800C0 1620 0 1620 0 1440C0 1260 0 1260 0 1080C0 1035 -11.55 1032.99 0 990C36.81 852.99 96.72 851.96 96.72 720" stroke="rgba(31, 172, 24, 0.58)" stroke-width="2"></path><path d="M1080 662.4C1035.31 662.4 977.14 694.92 977.14 720C977.14 743.44 1032.77 759.45 1080 759.45C1103.92 759.45 1119.45 741.55 1119.45 720C1119.45 693.03 1106.47 662.4 1080 662.4" stroke="rgba(31, 172, 24, 0.58)" stroke-width="2"></path><path d="M360 983.28C226.86 983.28 100.82 987.36 90 1080C74.15 1215.72 205.01 1256.61 306.67 1440C340.01 1500.14 317.64 1567.06 360 1567.06C421.45 1567.06 476.09 1526.13 514.29 1440C584.09 1282.6 622.81 1218.57 576 1080C545.67 990.21 469.86 983.28 360 983.28" stroke="rgba(31, 172, 24, 0.58)" stroke-width="2"></path><path d="M1080 1770C1074.91 1770 1073.21 1785.77 1073.21 1800C1073.21 1805.06 1075.82 1808.57 1080 1808.57C1086.41 1808.57 1094.4 1806.46 1094.4 1800C1094.4 1787.17 1085.51 1770 1080 1770" stroke="rgba(31, 172, 24, 0.58)" stroke-width="2"></path><path d="M720 2444.52C646.16 2444.52 582.35 2485.69 582.35 2520C582.35 2552.68 648 2578.5 720 2578.5C872.82 2578.5 1032 2553.31 1032 2520C1032 2486.32 870.99 2444.52 720 2444.52" stroke="rgba(31, 172, 24, 0.58)" stroke-width="2"></path><path d="M720 22.04C692.94 22.04 668.57 5.74 668.57 0C668.57 -5.28 694.29 0 720 0C787.5 0 855 -5.47 855 0C855 5.55 786.15 22.04 720 22.04" stroke="rgba(31, 172, 24, 0.58)" stroke-width="2"></path><path d="M982.86 360C982.86 229.12 982.79 104.78 1080 81.82C1211.36 50.78 1298.4 142.59 1440 252C1478.4 281.68 1440 306 1440 360C1440 540 1440 540 1440 720C1440 900 1440 900 1440 1080C1440 1260 1440 1260 1440 1440C1440 1608 1482.17 1776 1440 1776C1392.17 1776 1377.5 1580.13 1260 1440C1197.5 1365.46 1158.48 1409.22 1080 1346.67C932.63 1229.22 808.3 1203.26 808.3 1080C808.3 971.29 951.12 989.54 1080 882.74C1168.34 809.54 1242.74 808.91 1242.74 720C1242.74 608.74 1164.23 599.09 1080 482.4C1034.29 419.09 982.86 429.41 982.86 360" stroke="rgba(31, 172, 24, 0.58)" stroke-width="2"></path><path d="M231.04 720C231.04 656.23 283.47 592.94 360 592.94C496.92 592.94 657.93 656.07 657.93 720C657.93 784.08 496.67 848.96 360 848.96C283.22 848.96 231.04 784.24 231.04 720" stroke="rgba(31, 172, 24, 0.58)" stroke-width="2"></path><path d="M0 1188.57C54.65 1188.57 195.56 1313.14 195.56 1440C195.56 1570.85 54.22 1704 0 1704C-43.56 1704 0 1572 0 1440C0 1314.28 -43.13 1188.57 0 1188.57" stroke="rgba(31, 172, 24, 0.58)" stroke-width="2"></path><path d="M396 1800C476.27 1630.26 576.98 1530 720 1530C830.68 1530 807.2 1668.3 903.4 1800C987.2 1914.73 980.01 1923.53 1080 2022.86C1161.21 2103.53 1265.81 2089.77 1265.81 2160C1265.81 2232.18 1188.42 2280.01 1080 2307.69C915.51 2349.68 891.93 2337.94 720 2299.35C562.96 2264.1 499.31 2279.04 422.07 2160C337.31 2029.37 327.3 1945.26 396 1800" stroke="rgba(31, 172, 24, 0.58)" stroke-width="2"></path><path d="M0 1955.68C92.31 1955.68 290.77 2076.62 290.77 2160C290.77 2232.78 107.84 2268 0 2268C-37.55 2268 0 2214 0 2160C0 2057.84 -53.07 1955.68 0 1955.68" stroke="rgba(31, 172, 24, 0.58)" stroke-width="2"></path><path d="M22.98 2880C186.52 2711.22 168.48 2601.93 360 2550C516.99 2507.43 534.01 2663.69 720 2691C894.01 2716.56 900.83 2679.63 1080 2655.74C1260.83 2631.63 1338.91 2532.03 1440 2595C1518.91 2644.16 1440 2737.5 1440 2880C1440 3060 1530 3150 1440 3240C1350 3330 1260 3240 1080 3240C1048.24 3240 1045.56 3251.64 1016.47 3240C865.56 3179.64 865.82 3096 720 3096C591.59 3096 599.19 3187.53 468 3240C419.19 3259.53 414 3240 360 3240C180 3240 95.51 3324.49 0 3240C-84.49 3165.26 -10 3078.19 0 2921.54C1.49 2898.19 6.52 2896.99 22.98 2880" stroke="rgba(31, 172, 24, 0.58)" stroke-width="2"></path><path d="M1366.03 720C1417.87 657.79 1420.45 574.05 1440 574.05C1457.44 574.05 1440 647.03 1440 720C1440 900 1440 900 1440 1080C1440 1143.53 1486.86 1194.04 1440 1207.06C1306.86 1244.04 1245.5 1225.53 1080 1180C1014.55 1162 978.11 1126.22 978.11 1080C978.11 1039.24 1033.96 1048.76 1080 1006.03C1227.92 868.76 1237.87 873.78 1366.03 720" stroke="rgba(31, 172, 24, 0.58)" stroke-width="2"></path><path d="M0 1331.43C23.59 1331.43 84.44 1385.22 84.44 1440C84.44 1496.5 23.41 1554 0 1554C-18.81 1554 0 1497 0 1440C0 1385.72 -18.63 1331.43 0 1331.43" stroke="rgba(31, 172, 24, 0.58)" stroke-width="2"></path><path d="M696 1800C696 1785.09 709.41 1780 720 1780C728.2 1780 733.58 1788.12 733.58 1800C733.58 1918.12 729.38 2040 720 2040C710.59 2040 696 1915.09 696 1800" stroke="rgba(31, 172, 24, 0.58)" stroke-width="2"></path><path d="M214.47 2880C214.47 2801.52 269.63 2751.18 360 2737.5C522.39 2712.93 538.51 2786.92 720 2803.5C898.51 2819.81 903.4 2781 1080 2803.28C1206.56 2819.25 1326.32 2827.17 1326.32 2880C1326.32 2938.66 1213.35 3007.02 1080 3026.25C910.19 3050.74 895.96 2950.93 720 2967.43C535.96 2984.68 510.65 3119.81 360 3093.75C257.89 3076.09 214.47 2979.64 214.47 2880" stroke="rgba(31, 172, 24, 0.58)" stroke-width="2"></path></g><defs><mask id="SvgjsMask1009"><rect width="1440" height="3000" fill="#ffffff"></rect></mask></defs></svg>