<svg xmlns="http://www.w3.org/2000/svg" version="1.1" xmlns:xlink="http://www.w3.org/1999/xlink" xmlns:svgjs="http://svgjs.dev/svgjs" width="1440" height="3000" preserveAspectRatio="none" viewBox="0 0 1440 3000"><g mask="url(&quot;#SvgjsMask1016&quot;)" fill="none"><rect width="1440" height="3000" x="0" y="0" fill="rgba(201, 228, 255, 1)"></rect><path d="M987.44 1474.84L1018.72 1474.84L1018.72 1506.12L987.44 1506.12z" fill="rgba(154, 219, 241, 1)"></path><path d="M1293.18 1953.63 a69.97 69.97 0 1 0 139.94 0 a69.97 69.97 0 1 0 -139.94 0z" stroke="rgba(114, 195, 240, 1)"></path><path d="M976.07 940.89a54.82 54.82 0 1 0 57.45 93.38z" fill="rgba(87, 119, 168, 1)"></path><path d="M1214.24 176.26a65.38 65.38 0 1 0 28.66 127.58z" stroke="rgba(114, 195, 240, 1)"></path><path d="M330.4 1958.92L364.91 1958.92L364.91 1993.43L330.4 1993.43z" fill="rgba(154, 219, 241, 1)"></path><path d="M150.86 2440.58L281.13 2440.58L281.13 2473.05L150.86 2473.05z" stroke="rgba(114, 195, 240, 1)"></path><path d="M412.05 378.23a103.56 103.56 0 1 0 177.38-106.94z" fill="rgba(114, 173, 215, 1)"></path><path d="M1067.42 1431.89L1089.03 1431.89L1089.03 1448.83L1067.42 1448.83z" fill="rgba(114, 173, 215, 1)"></path><path d="M1339.09 565.05 a39.57 39.57 0 1 0 79.14 0 a39.57 39.57 0 1 0 -79.14 0z" fill="rgba(154, 219, 241, 1)"></path><path d="M617.79 2901.35L741.9 2901.35L741.9 2918.06L617.79 2918.06z" stroke="rgba(114, 173, 215, 1)"></path><path d="M872.62 1541.96 a46.22 46.22 0 1 0 92.44 0 a46.22 46.22 0 1 0 -92.44 0z" stroke="rgba(154, 219, 241, 1)"></path><path d="M480.05 2921.81 a107.11 107.11 0 1 0 214.22 0 a107.11 107.11 0 1 0 -214.22 0z" fill="rgba(114, 173, 215, 1)"></path><path d="M700.1 1038.68L810.15 1038.68L810.15 1148.73L700.1 1148.73z" fill="rgba(114, 173, 215, 1)"></path><path d="M237.54 1755.26 a115.6 115.6 0 1 0 231.2 0 a115.6 115.6 0 1 0 -231.2 0z" stroke="rgba(114, 195, 240, 1)"></path><path d="M1008.57 518.3L1024.85 518.3L1024.85 558.87L1008.57 558.87z" fill="rgba(87, 119, 168, 1)"></path><path d="M1292.35 579.72 a35.38 35.38 0 1 0 70.76 0 a35.38 35.38 0 1 0 -70.76 0z" fill="rgba(114, 195, 240, 1)"></path><path d="M917.72 1895.07a120.74 120.74 0 1 0 49.13 236.43z" fill="rgba(87, 119, 168, 1)"></path><path d="M1311.01 2435.21L1379.78 2435.21L1379.78 2483.83L1311.01 2483.83z" stroke="rgba(87, 119, 168, 1)"></path><path d="M1310.63 2079.14 a113.57 113.57 0 1 0 227.14 0 a113.57 113.57 0 1 0 -227.14 0z" fill="rgba(114, 195, 240, 1)"></path><path d="M399.21 2436.67L539.45 2436.67L539.45 2529.18L399.21 2529.18z" fill="rgba(114, 195, 240, 1)"></path><path d="M1241.38 2226.49L1319.53 2226.49L1319.53 2304.64L1241.38 2304.64z" fill="rgba(154, 219, 241, 1)"></path><path d="M939.46 2310.72L955.48 2310.72L955.48 2431.49L939.46 2431.49z" stroke="rgba(114, 173, 215, 1)"></path><path d="M764.59 1837.18a20.31 20.31 0 1 0-15.72-37.45z" stroke="rgba(114, 195, 240, 1)"></path><path d="M1087.26 2217.85L1148.9 2217.85L1148.9 2360.76L1087.26 2360.76z" stroke="rgba(154, 219, 241, 1)"></path><path d="M619.11 2591.03L733.65 2591.03L733.65 2627.49L619.11 2627.49z" fill="rgba(87, 119, 168, 1)"></path><path d="M1334.43 1122.9L1384.3 1122.9L1384.3 1154.46L1334.43 1154.46z" fill="rgba(114, 173, 215, 1)"></path><path d="M1173.31 2880.67L1267.54 2880.67L1267.54 2954L1173.31 2954z" fill="rgba(154, 219, 241, 1)"></path></g><defs><mask id="SvgjsMask1016"><rect width="1440" height="3000" fill="#ffffff"></rect></mask></defs></svg>